<svg width="121" height="108" viewBox="0 0 121 108" fill="none" xmlns="http://www.w3.org/2000/svg">
<g clip-path="url(#clip0_1_535)">
<path d="M70.5723 69.6214C73.3542 70.7876 76.6066 69.4906 77.3165 66.5694C78.8717 60.1657 78.5181 53.4053 76.2337 47.137C73.3245 39.1525 67.4967 32.5544 59.9144 28.6604C52.332 24.7665 43.5537 23.8632 35.3318 26.131C27.1099 28.3987 20.0498 33.6707 15.5615 40.8939C11.0731 48.1172 9.48689 56.7601 11.1194 65.0968C12.752 73.4336 17.4833 80.8503 24.3684 85.8661C31.2535 90.8818 39.7857 93.1275 48.2611 92.1545C54.9148 91.3907 61.1489 88.6876 66.2105 84.4423C68.5189 82.5066 68.2326 79.0304 65.9425 77.0729C63.6523 75.1149 60.2283 75.4441 57.7776 77.198C54.6253 79.4536 50.9243 80.8944 47.0089 81.3436C41.2675 82.003 35.4876 80.4816 30.8235 77.0838C26.1594 73.6859 22.9544 68.6619 21.8484 63.0142C20.7425 57.367 21.8171 51.5121 24.8576 46.619C27.8981 41.7258 32.6807 38.1545 38.2503 36.6183C43.82 35.082 49.7667 35.6939 54.9033 38.3318C60.0395 40.9696 63.9872 45.4393 65.9581 50.8481C67.3021 54.5367 67.6594 58.4766 67.0393 62.2919C66.5574 65.2583 67.7903 68.4552 70.5723 69.6214Z" fill="#1CCA00"/>
<path d="M44.3187 71.4371C50.9236 71.4371 56.2779 66.1066 56.2779 59.5311C56.2779 52.9555 50.9236 47.625 44.3187 47.625C37.7137 47.625 32.3594 52.9555 32.3594 59.5311C32.3594 66.1066 37.7137 71.4371 44.3187 71.4371Z" fill="white"/>
<path d="M118.653 10.151C119.949 7.12551 118.536 3.62681 115.497 2.33643C112.458 1.04606 108.943 2.45265 107.647 5.47814L68.1819 97.5992C66.8858 100.625 68.2986 104.123 71.3377 105.414C74.3767 106.704 77.891 105.298 79.1872 102.272L118.653 10.151Z" fill="#1CCA00"/>
</g>
<defs>
<clipPath id="clip0_1_535">
<rect width="121" height="108" fill="white" transform="translate(-0.000976562)"/>
</clipPath>
</defs>
</svg>
