<svg width="140" height="237" viewBox="0 0 140 237" fill="none" xmlns="http://www.w3.org/2000/svg">
<g filter="url(#filter0_d_122_3)">
<path d="M78 151.5C78 171.658 61.4345 188 41 188C20.5655 188 4 171.658 4 151.5C4 131.342 20.5655 115 41 115C61.4345 115 78 131.342 78 151.5Z" fill="url(#paint0_linear_122_3)" shape-rendering="crispEdges"/>
<path d="M260.256 123.225C255.438 185.765 200.833 232.557 138.293 227.738C105.279 225.195 76.6527 208.777 57.691 184.642C70.0235 178.584 78.5 166.021 78.5 151.5C78.5 131.059 61.7042 114.5 41 114.5C38.4106 114.5 35.8824 114.759 33.4405 115.252C33.4232 112.117 33.5348 108.957 33.7799 105.775C38.5987 43.2354 93.2035 -3.55665 155.743 1.2621C218.283 6.08085 265.075 60.6857 260.256 123.225ZM4.5 151.5C4.5 134.525 16.4146 120.287 32.4538 116.492C32.8636 141.769 41.5734 165.313 56.1351 184.269C51.5248 186.344 46.3997 187.5 41 187.5C20.8352 187.5 4.5 171.376 4.5 151.5ZM77.5 151.5C77.5 165.694 69.1698 177.974 57.0634 183.836C42.5083 164.964 33.8143 141.482 33.4506 116.271C35.8864 115.766 38.4116 115.5 41 115.5C61.1648 115.5 77.5 131.624 77.5 151.5Z" stroke="url(#paint1_linear_122_3)" shape-rendering="crispEdges"/>
</g>
<defs>
<filter id="filter0_d_122_3" x="0" y="0.420898" width="265.097" height="236.159" filterUnits="userSpaceOnUse" color-interpolation-filters="sRGB">
<feFlood flood-opacity="0" result="BackgroundImageFix"/>
<feColorMatrix in="SourceAlpha" type="matrix" values="0 0 0 0 0 0 0 0 0 0 0 0 0 0 0 0 0 0 127 0" result="hardAlpha"/>
<feOffset dy="4"/>
<feGaussianBlur stdDeviation="2"/>
<feComposite in2="hardAlpha" operator="out"/>
<feColorMatrix type="matrix" values="0 0 0 0 0 0 0 0 0 0 0 0 0 0 0 0 0 0 0.25 0"/>
<feBlend mode="normal" in2="BackgroundImageFix" result="effect1_dropShadow_122_3"/>
<feBlend mode="normal" in="SourceGraphic" in2="effect1_dropShadow_122_3" result="shape"/>
</filter>
<linearGradient id="paint0_linear_122_3" x1="19.3025" y1="87.963" x2="50.7015" y2="203.09" gradientUnits="userSpaceOnUse">
<stop stop-color="#45CA00"/>
<stop offset="1" stop-opacity="0"/>
</linearGradient>
<linearGradient id="paint1_linear_122_3" x1="23.8704" y1="121.985" x2="40.5677" y2="188.109" gradientUnits="userSpaceOnUse">
<stop stop-color="white"/>
<stop offset="0.255208" stop-color="#45CA00"/>
<stop offset="0.614583" stop-color="#45CA00"/>
<stop offset="1" stop-color="white" stop-opacity="0.72"/>
</linearGradient>
</defs>
</svg>
