<svg width="240" height="376" viewBox="0 0 240 376" fill="none" xmlns="http://www.w3.org/2000/svg">
<path d="M240 309.5C240 342.913 212.913 370 179.5 370C146.087 370 119 342.913 119 309.5C119 276.087 146.087 249 179.5 249C212.913 249 240 276.087 240 309.5Z" fill="url(#paint0_linear_122_2)"/>
<path d="M228.839 202.739C227.279 222.983 222.552 242.226 215.179 260.017C205.146 252.77 192.822 248.5 179.5 248.5C145.811 248.5 118.5 275.811 118.5 309.5C118.5 325.523 124.678 340.103 134.781 350.988C103.457 368.826 66.6509 377.816 28.0047 374.839C-74.9782 366.904 -152.03 276.987 -144.095 174.004C-136.16 71.021 -46.2432 -6.03058 56.7397 1.90436C159.723 9.8393 236.774 99.756 228.839 202.739ZM179.5 369.5C162.576 369.5 147.289 362.493 136.381 351.222C171.433 330.946 199.547 299.605 215.61 261.578C230.121 272.53 239.5 289.92 239.5 309.5C239.5 342.637 212.637 369.5 179.5 369.5ZM179.5 249.5C192.687 249.5 204.881 253.754 214.783 260.965C198.789 298.966 170.704 330.273 135.672 350.477C125.641 339.752 119.5 325.343 119.5 309.5C119.5 276.363 146.363 249.5 179.5 249.5Z" stroke="url(#paint1_linear_122_2)"/>
<defs>
<linearGradient id="paint0_linear_122_2" x1="144.022" y1="204.185" x2="196.679" y2="394.648" gradientUnits="userSpaceOnUse">
<stop stop-color="#45CA00"/>
<stop offset="1" stop-opacity="0"/>
</linearGradient>
<linearGradient id="paint1_linear_122_2" x1="151.491" y1="260.577" x2="179.5" y2="370" gradientUnits="userSpaceOnUse">
<stop stop-color="white"/>
<stop offset="0.255208" stop-color="#45CA00"/>
<stop offset="0.614583" stop-color="#45CA00"/>
<stop offset="1" stop-color="white" stop-opacity="0.72"/>
</linearGradient>
</defs>
</svg>
