<svg width="15" height="15" viewBox="0 0 17 17" fill="none" xmlns="http://www.w3.org/2000/svg">
<path d="M8.16889 4.72985C5.87767 4.72985 4.02854 6.57901 4.02854 8.87028C4.02854 11.1615 5.87767 13.0107 8.16889 13.0107C10.4601 13.0107 12.3092 11.1615 12.3092 8.87028C12.3092 6.57901 10.4601 4.72985 8.16889 4.72985ZM8.16889 11.5613C6.68716 11.5613 5.47796 10.352 5.47796 8.87028C5.47796 7.38853 6.68716 6.1793 8.16889 6.1793C9.65062 6.1793 10.8598 7.38853 10.8598 8.87028C10.8598 10.352 9.65062 11.5613 8.16889 11.5613ZM12.4788 3.59532C11.9439 3.59532 11.5119 4.02733 11.5119 4.56229C11.5119 5.09726 11.9439 5.52927 12.4788 5.52927C13.0138 5.52927 13.4458 5.09928 13.4458 4.56229C13.4459 4.43526 13.421 4.30945 13.3725 4.19206C13.324 4.07467 13.2527 3.968 13.1629 3.87818C13.0731 3.78836 12.9664 3.71714 12.849 3.6686C12.7317 3.62006 12.6058 3.59516 12.4788 3.59532ZM16.2397 8.87028C16.2397 7.75594 16.2498 6.65169 16.1872 5.53936C16.1246 4.24737 15.8299 3.10072 14.8851 2.15596C13.9383 1.20917 12.7937 0.91645 11.5018 0.853869C10.3874 0.791288 9.28321 0.801382 8.17091 0.801382C7.05659 0.801382 5.95236 0.791288 4.84005 0.853869C3.54809 0.91645 2.40146 1.21119 1.45671 2.15596C0.509941 3.10274 0.217229 4.24737 0.154649 5.53936C0.0920694 6.6537 0.102163 7.75795 0.102163 8.87028C0.102163 9.9826 0.0920694 11.0889 0.154649 12.2012C0.217229 13.4932 0.511959 14.6398 1.45671 15.5846C2.40348 16.5314 3.54809 16.8241 4.84005 16.8867C5.95438 16.9493 7.05861 16.9392 8.17091 16.9392C9.28523 16.9392 10.3895 16.9493 11.5018 16.8867C12.7937 16.8241 13.9404 16.5294 14.8851 15.5846C15.8319 14.6378 16.1246 13.4932 16.1872 12.2012C16.2518 11.0889 16.2397 9.98462 16.2397 8.87028ZM14.4632 13.6305C14.3158 13.9979 14.1382 14.2724 13.8536 14.555C13.5689 14.8397 13.2964 15.0173 12.929 15.1647C11.8672 15.5866 9.34579 15.4917 8.16889 15.4917C6.99199 15.4917 4.46861 15.5866 3.40678 15.1667C3.03937 15.0194 2.76483 14.8417 2.48221 14.5571C2.19757 14.2724 2.01993 13.9999 1.87256 13.6325C1.45267 12.5686 1.54755 10.0472 1.54755 8.87028C1.54755 7.69336 1.45267 5.16993 1.87256 4.10808C2.01993 3.74066 2.19757 3.46612 2.48221 3.18349C2.76685 2.90087 3.03937 2.7212 3.40678 2.57383C4.46861 2.15394 6.99199 2.24882 8.16889 2.24882C9.34579 2.24882 11.8692 2.15394 12.931 2.57383C13.2984 2.7212 13.573 2.89885 13.8556 3.18349C14.1402 3.46814 14.3179 3.74066 14.4652 4.10808C14.8851 5.16993 14.7902 7.69336 14.7902 8.87028C14.7902 10.0472 14.8851 12.5686 14.4632 13.6305Z" fill="#E2E2E2"/>
</svg>
