<svg width="15" height="15" viewBox="0 0 17 17" fill="none" xmlns="http://www.w3.org/2000/svg">
<path fill-rule="evenodd" clip-rule="evenodd" d="M6.1003 6.42441H9.09731V7.91727C9.52903 7.05868 10.6362 6.28723 12.2993 6.28723C15.4875 6.28723 16.2445 7.99635 16.2445 11.1322V16.9398H13.0167V11.8463C13.0167 10.0605 12.5849 9.05346 11.4859 9.05346C9.96155 9.05346 9.3281 10.1388 9.3281 11.8455V16.9398H6.1003V6.42441ZM0.56543 16.8026H3.79323V6.28723H0.56543V16.8026ZM4.25561 2.8585C4.25573 3.12905 4.20208 3.39693 4.09776 3.64656C3.99345 3.89619 3.84056 4.1226 3.64798 4.31263C3.25774 4.70047 2.72952 4.91756 2.17933 4.91623C1.63011 4.91586 1.10311 4.69932 0.712295 4.31343C0.520412 4.12276 0.368039 3.8961 0.263908 3.64643C0.159778 3.39677 0.105936 3.12901 0.105469 2.8585C0.105469 2.3122 0.323345 1.78929 0.713102 1.40357C1.10357 1.01717 1.6308 0.80054 2.18014 0.800781C2.73048 0.800781 3.25822 1.01785 3.64798 1.40357C4.03693 1.78929 4.25561 2.3122 4.25561 2.8585Z" fill="#E2E2E2"/>
</svg>
