<svg width="15" height="15" viewBox="0 0 17 14" fill="none" xmlns="http://www.w3.org/2000/svg">
<path d="M16.2445 2.2873C15.651 2.54514 15.0051 2.73071 14.3398 2.80298C15.0305 2.38972 15.5478 1.73684 15.7945 0.966833C15.1464 1.35514 14.4363 1.62742 13.6959 1.77161C13.3864 1.43842 13.0121 1.17299 12.5964 0.991851C12.1806 0.810712 11.7322 0.71775 11.2792 0.718758C9.44634 0.718758 7.97228 2.21502 7.97228 4.05117C7.97228 4.30901 8.00332 4.56685 8.05375 4.81493C5.30928 4.67038 2.86157 3.34992 1.23429 1.3282C0.937779 1.83825 0.782398 2.419 0.784311 3.01003C0.784311 4.16642 1.36812 5.18606 2.25837 5.78574C1.73373 5.76493 1.22137 5.6197 0.762976 5.36186V5.40288C0.762976 7.02221 1.89955 8.36416 3.41434 8.67279C3.12992 8.74719 2.83734 8.78525 2.54348 8.78608C2.32819 8.78608 2.12454 8.76459 1.91895 8.73529C2.33789 10.0558 3.55787 11.0148 5.01059 11.0461C3.87401 11.9427 2.45038 12.4701 0.904563 12.4701C0.627208 12.4701 0.371187 12.4603 0.105469 12.4291C1.57177 13.3764 3.31155 13.9234 5.18515 13.9234C11.2676 13.9234 14.5958 8.84859 14.5958 4.44379C14.5958 4.29924 14.5958 4.1547 14.5862 4.01015C15.2301 3.53548 15.7945 2.94753 16.2445 2.2873Z" fill="#E2E2E2"/>
</svg>
